HIERARCHY
ROOT Hips
{
	OFFSET -21.947001 39.810204 44.525997
	CHANNELS 6 Xposition Yposition Zposition Zrotation Xrotation Yrotation
	JOINT Chest
	{
		OFFSET -0.201599 0.334099 6.453201
		CHANNELS 6 Xposition Yposition Zposition Zrotation Xrotation Yrotation
		JOINT Chest2
		{
			OFFSET 0.000000 0.000000 3.568001
			CHANNELS 6 Xposition Yposition Zposition Zrotation Xrotation Yrotation
			JOINT Neck
			{
				OFFSET 0.000000 0.000000 8.296402
				CHANNELS 6 Xposition Yposition Zposition Zrotation Xrotation Yrotation
				JOINT Head
				{
					OFFSET 0.000000 0.000000 2.173901
					CHANNELS 6 Xposition Yposition Zposition Zrotation Xrotation Yrotation
					End Site
					{
						OFFSET 0.000000 0.000000 7.891998
					}
				}
			}
			JOINT LeftCollar
			{
				OFFSET 1.927601 0.221401 6.049000
				CHANNELS 6 Xposition Yposition Zposition Zrotation Xrotation Yrotation
				JOINT LeftShoulder
				{
					OFFSET 4.959700 0.000000 0.000000
					CHANNELS 6 Xposition Yposition Zposition Zrotation Xrotation Yrotation
					JOINT LeftElbow
					{
						OFFSET 0.000000 0.000000 -8.654202
						CHANNELS 6 Xposition Yposition Zposition Zrotation Xrotation Yrotation
						JOINT LeftWrist
						{
							OFFSET 0.000000 0.000000 -13.864101
							CHANNELS 6 Xposition Yposition Zposition Zrotation Xrotation Yrotation
							End Site
							{
								OFFSET 0.000000 0.000000 -2.173901
							}
						}
					}
				}
			}
			JOINT RightCollar
			{
				OFFSET -3.155701 -0.764999 6.687801
				CHANNELS 6 Xposition Yposition Zposition Zrotation Xrotation Yrotation
				JOINT RightShoulder
				{
					OFFSET -3.592899 0.000000 0.000000
					CHANNELS 6 Xposition Yposition Zposition Zrotation Xrotation Yrotation
					JOINT RightElbow
					{
						OFFSET 0.000000 0.000000 -10.352398
						CHANNELS 6 Xposition Yposition Zposition Zrotation Xrotation Yrotation
						JOINT RightWrist
						{
							OFFSET 0.000000 0.000000 -12.750301
							CHANNELS 6 Xposition Yposition Zposition Zrotation Xrotation Yrotation
							End Site
							{
								OFFSET 0.000000 0.000000 -2.173901
							}
						}
					}
				}
			}
		}
	}
	JOINT LeftHip
	{
		OFFSET 2.460600 -0.518101 -2.735500
		CHANNELS 6 Xposition Yposition Zposition Zrotation Xrotation Yrotation
		JOINT LeftKnee
		{
			OFFSET 0.000000 -0.000004 -17.005899
			CHANNELS 6 Xposition Yposition Zposition Zrotation Xrotation Yrotation
			JOINT LeftAnkle
			{
				OFFSET 0.000000 0.000000 -19.194401
				CHANNELS 6 Xposition Yposition Zposition Zrotation Xrotation Yrotation
				End Site
				{
					OFFSET 0.000000 -8.134600 0.000000
				}
			}
		}
	}
	JOINT RightHip
	{
		OFFSET -3.115499 -0.679600 -2.320301
		CHANNELS 6 Xposition Yposition Zposition Zrotation Xrotation Yrotation
		JOINT RightKnee
		{
			OFFSET 0.000000 -0.000004 -17.680401
			CHANNELS 6 Xposition Yposition Zposition Zrotation Xrotation Yrotation
			JOINT RightAnkle
			{
				OFFSET 0.000000 0.000000 -16.993797
				CHANNELS 6 Xposition Yposition Zposition Zrotation Xrotation Yrotation
				End Site
				{
					OFFSET 0.000000 -8.842300 0.000000
				}
			}
		}
	}
}
MOTION
Frames: 8
Frame Time: 0.041667
-37.307995 20.481407 42.412594 2883.550686 0.181433 10.112886 -0.201599 0.334098 6.453196 -34.405234 3.471140 0.045881 -0.000005 -0.000002 3.568001 5.705841 -9.854544 -0.824823 0.000009 0.000004 8.296395 228.466385 -182.158495 157.944627 0.000003 -0.000001 2.173896 4.498534 5.569287 -4.357157 1.927600 0.221407 6.049003 -33.514106 13.928088 21.361625 4.959702 0.000000 0.000001 148.117679 209.771365 106.775302 -0.000003 0.000000 -8.654200 27.125389 -50.781541 35.430490 0.000001 0.000000 -13.864100 3904.492392 -178.766855 197.348576 -3.155704 -0.764997 6.687803 41.398326 6.600381 -41.671394 -3.592906 0.000007 -0.000001 2.225148 -29.647396 89.180564 -0.000002 -0.000004 -10.352387 -46.611393 -92.781706 2.569852 0.000011 -0.000003 -12.750296 179.941320 1.173709 30.148598 2.460600 -0.518096 -2.735507 -12.956773 1.663591 -26.352523 -0.000008 -0.000001 -17.005896 151.303088 180.532500 -125.818560 -0.000002 0.000003 -19.194401 247.046084 141.416785 277.832862 -3.115496 -0.679593 -2.320307 -20.986537 -18.063975 -20.066015 -0.000005 0.000001 -17.680401 -103.294966 154.611372 -218.386215 0.000003 0.000002 -16.993795 300.871172 19.914433 -26.732122
-37.301601 20.445801 42.349796 2882.924275 0.105405 10.293751 -0.201603 0.334100 6.453194 -34.080926 3.626321 -0.008299 -0.000003 0.000004 3.568000 5.694961 -9.850277 -0.825826 0.000006 0.000005 8.296407 228.554823 -182.170421 157.928290 -0.000001 -0.000001 2.173903 4.521041 5.576588 -4.429793 1.927596 0.221409 6.049008 -33.494507 13.935521 21.478059 4.959702 -0.000006 0.000014 147.906831 209.611949 106.614383 -0.000003 0.000001 -8.654198 27.302433 -50.767724 35.474360 0.000000 -0.000003 -13.864096 3904.441685 -178.762607 197.342812 -3.155700 -0.764993 6.687807 41.529473 6.650310 -41.736339 -3.592907 0.000004 0.000004 2.132953 -29.638974 89.094968 -0.000008 -0.000004 -10.352391 -46.778309 -92.779302 2.505253 0.000002 -0.000001 -12.750299 179.939872 1.152245 30.166787 2.460598 -0.518099 -2.735507 -14.964154 3.117829 -26.583974 -0.000005 -0.000002 -17.005896 153.811899 181.294230 -125.735313 -0.000006 0.000007 -19.194403 248.096868 141.162443 278.322668 -3.115499 -0.679598 -2.320303 -20.863183 -18.118291 -20.272524 -0.000003 -0.000004 -17.680401 -102.725082 154.749697 -218.888766 0.000006 0.000005 -16.993797 300.807869 19.785012 -26.639894
-37.296997 20.415407 42.290993 2882.376767 0.020437 10.466995 -0.201600 0.334101 6.453192 -33.786347 3.794490 -0.033131 0.000002 0.000003 3.567995 5.680672 -9.847910 -0.826809 0.000002 0.000005 8.296392 228.570928 -182.176950 157.920339 0.000001 -0.000001 2.173908 4.568560 5.599068 -4.536923 1.927605 0.221407 6.048997 -33.491576 13.946773 21.585081 4.959695 0.000003 0.000007 147.680725 209.433804 106.441552 0.000000 -0.000009 -8.654198 27.417308 -50.765859 35.478130 0.000002 -0.000001 -13.864104 3904.457422 -178.756760 197.337607 -3.155703 -0.764998 6.687793 41.631188 6.678439 -41.859169 -3.592911 -0.000001 0.000011 2.161192 -29.550393 89.064560 -0.000014 0.000005 -10.352402 -49.085465 -92.766140 0.360341 0.000010 0.000005 -12.750299 179.937522 1.136243 30.182657 2.460599 -0.518101 -2.735500 -14.942702 3.306006 -26.766681 -0.000004 -0.000002 -17.005898 154.027364 181.537303 -125.607848 -0.000006 0.000007 -19.194405 248.795924 140.962059 278.541207 -3.115502 -0.679598 -2.320305 -20.899277 -18.154076 -20.501798 -0.000002 0.000001 -17.680397 -102.066652 154.848817 -219.405197 -0.000001 0.000003 -16.993792 300.759157 19.643624 -26.533057
-37.294495 20.389805 42.237198 2881.867946 -0.028980 10.639176 -0.201600 0.334102 6.453199 -33.500152 3.933138 -0.070532 -0.000005 0.000000 3.568004 5.664715 -9.845094 -0.827826 -0.000003 0.000002 8.296391 228.546667 -182.175939 157.918085 0.000005 -0.000003 2.173895 4.632060 5.618864 -4.674974 1.927597 0.221408 6.048997 -33.509465 13.961226 21.693786 4.959706 -0.000003 -0.000001 147.457487 209.255085 106.255552 -0.000005 0.000004 -8.654206 27.414639 -50.775428 35.416935 0.000001 -0.000005 -13.864105 3904.609107 -178.754807 197.333905 -3.155707 -0.765000 6.687797 41.702208 6.687436 -42.042181 -3.592903 -0.000005 0.000006 2.132378 -29.378491 89.141980 -0.000019 -0.000004 -10.352393 -49.398646 -92.733390 0.280124 0.000003 -0.000003 -12.750298 179.931894 1.129748 30.196089 2.460601 -0.518097 -2.735506 -15.462799 3.862528 -26.980805 -0.000005 -0.000003 -17.005896 154.686245 182.256098 -125.544245 -0.000006 -0.000003 -19.194397 249.833731 140.836274 278.896896 -3.115500 -0.679599 -2.320299 -20.891684 -18.215669 -20.774476 -0.000010 -0.000001 -17.680397 -101.424484 154.931435 -219.860989 0.000006 0.000006 -16.993795 300.674080 19.509155 -26.540061
-37.293499 20.367598 42.188995 2881.395406 -0.077255 10.676099 -0.201602 0.334097 6.453212 -33.205351 3.992194 0.019673 -0.000006 0.000007 3.567999 5.642959 -9.842970 -0.828559 0.000007 -0.000001 8.296400 228.489417 -182.158440 157.893797 -0.000003 0.000000 2.173899 4.686989 5.651807 -4.846058 1.927602 0.221402 6.049001 -33.559721 13.986513 21.791881 4.959700 0.000005 0.000007 147.241748 209.073429 106.061390 -0.000005 0.000001 -8.654197 27.338423 -50.804183 35.308694 0.000003 0.000002 -13.864100 3904.832044 -178.746556 197.329902 -3.155696 -0.764996 6.687801 41.510280 6.810199 -42.120554 -3.592911 -0.000003 0.000007 2.295258 -29.131173 89.125192 -0.000011 -0.000008 -10.352399 -49.556110 -92.697422 0.378040 0.000010 0.000001 -12.750303 179.929067 1.123248 30.207782 2.460597 -0.518100 -2.735496 -15.604289 4.094067 -27.033079 -0.000004 -0.000002 -17.005899 155.006458 182.598072 -125.441656 -0.000005 0.000003 -19.194403 250.497297 140.762317 278.998338 -3.115499 -0.679598 -2.320292 -20.865145 -18.314944 -20.924131 -0.000002 0.000003 -17.680397 -100.789659 154.996800 -220.283996 0.000004 -0.000002 -16.993793 300.593784 19.385487 -26.586865
-37.293400 20.348408 42.146996 2881.004173 -0.100515 10.857989 -0.201595 0.334107 6.453207 -32.937696 4.105714 -0.013585 -0.000002 0.000001 3.567994 5.617378 -9.840164 -0.828723 -0.000006 0.000003 8.296396 228.365531 -182.148236 157.874304 -0.000000 -0.000000 2.173902 4.762952 5.703776 -5.015553 1.927591 0.221403 6.049000 -33.648503 14.024392 21.876951 4.959704 -0.000004 -0.000003 147.134200 208.893249 105.804446 -0.000005 -0.000005 -8.654199 27.321148 -50.860071 35.362437 -0.000002 0.000002 -13.864106 3905.174318 -178.737267 197.326528 -3.155703 -0.764997 6.687800 41.439656 6.799396 -42.383171 -3.592899 0.000001 0.000003 2.332654 -28.896492 89.294751 -0.000004 0.000004 -10.352389 -49.927057 -92.663366 0.250413 0.000006 -0.000000 -12.750295 179.928698 1.117574 30.217525 2.460601 -0.518094 -2.735499 -15.717826 4.304872 -27.216526 -0.000002 -0.000008 -17.005894 155.257372 182.873889 -125.348861 -0.000009 0.000002 -19.194399 251.033412 140.726062 279.021615 -3.115502 -0.679594 -2.320300 -20.926591 -18.365325 -21.229427 -0.000000 0.000004 -17.680397 -100.238319 155.016689 -220.657854 0.000003 0.000002 -16.993793 300.546519 19.264380 -26.649026
-37.293800 20.332104 42.110390 2880.557861 -0.323225 11.040716 -0.201602 0.334098 6.453204 -32.541494 4.361876 0.051690 0.000001 0.000003 3.567998 5.588637 -9.838546 -0.828705 0.000002 -0.000002 8.296391 228.195172 -182.143127 157.854305 -0.000001 -0.000000 2.173909 4.836558 5.762482 -5.177751 1.927606 0.221409 6.048996 -33.767769 14.071892 21.950811 4.959701 0.000002 -0.000005 146.960263 208.753435 105.620590 -0.000004 0.000004 -8.654199 27.144248 -50.884636 35.231796 0.000001 0.000001 -13.864100 3905.523150 -178.729822 197.322922 -3.155696 -0.764997 6.687798 41.307850 6.773946 -42.661368 -3.592900 0.000002 0.000003 2.291931 -28.647758 89.365710 -0.000007 -0.000004 -10.352399 -49.961679 -92.743970 0.437016 0.000003 -0.000001 -12.750298 179.931170 1.113302 30.224519 2.460601 -0.518102 -2.735507 -15.641666 4.644022 -27.349539 0.000000 -0.000005 -17.005901 155.468097 183.069273 -125.252036 -0.000006 0.000003 -19.194403 251.450354 140.715776 278.955390 -3.115499 -0.679598 -2.320295 -20.831775 -18.230328 -21.463566 0.000000 0.000002 -17.680397 -99.728862 155.033273 -220.989213 0.000004 -0.000004 -16.993792 300.497834 19.144370 -26.763608
-37.294296 20.318207 42.079292 2880.352409 -0.203422 11.150201 -0.201598 0.334100 6.453196 -32.439919 4.323199 0.018074 -0.000004 0.000004 3.567999 5.563885 -9.845021 -0.829865 0.000010 0.000005 8.296393 228.056915 -182.134658 157.809472 -0.000004 -0.000003 2.173906 4.889322 5.820209 -5.312531 1.927604 0.221401 6.048999 -33.882738 14.131575 22.031991 4.959698 0.000006 0.000010 146.809643 208.626544 105.437780 -0.000003 0.000011 -8.654198 26.987583 -50.893720 35.138560 -0.000001 -0.000003 -13.864101 3905.863676 -178.723019 197.319480 -3.155696 -0.764999 6.687793 41.159861 6.742277 -42.928681 -3.592905 0.000008 0.000010 2.318141 -28.402937 89.550692 -0.000012 0.000001 -10.352398 -49.852250 -92.724722 0.731034 -0.000001 -0.000007 -12.750308 179.935624 1.108205 30.230998 2.460603 -0.518097 -2.735501 -15.790581 4.650143 -27.489736 -0.000004 0.000000 -17.005898 155.654233 183.210426 -125.157220 -0.000001 0.000001 -19.194399 251.791973 140.727524 278.857554 -3.115494 -0.679597 -2.320307 -21.006429 -18.384024 -21.724936 0.000002 -0.000003 -17.680397 -99.297270 155.032221 -221.278827 0.000001 0.000001 -16.993793 300.475376 19.032322 -26.894123
